<svg width="420" height="320" xmlns="http://www.w3.org/2000/svg">
  <rect x="120" y="10" width="180" height="40" rx="8" fill="#1976d2" stroke="#0d47a1" stroke-width="2"/>
  <text x="210" y="35" font-size="16" font-family="Verdana" fill="#fff" text-anchor="middle">Angular Frontend</text>

  <rect x="120" y="60" width="180" height="40" rx="8" fill="#388e3c" stroke="#1b5e20" stroke-width="2"/>
  <text x="210" y="85" font-size="16" font-family="Verdana" fill="#fff" text-anchor="middle">Web API Layer</text>

  <rect x="120" y="110" width="180" height="40" rx="8" fill="#fbc02d" stroke="#f57c00" stroke-width="2"/>
  <text x="210" y="135" font-size="16" font-family="Verdana" fill="#fff" text-anchor="middle">Service Layer</text>

  <rect x="120" y="160" width="180" height="40" rx="8" fill="#8e24aa" stroke="#4a148c" stroke-width="2"/>
  <text x="210" y="185" font-size="16" font-family="Verdana" fill="#fff" text-anchor="middle">Repository Layer</text>

  <rect x="120" y="210" width="180" height="40" rx="8" fill="#546e7a" stroke="#263238" stroke-width="2"/>
  <text x="210" y="235" font-size="16" font-family="Verdana" fill="#fff" text-anchor="middle">EF6 / LocalDB</text>

  <!-- Arrows -->
  <polygon points="210,50 220,60 200,60" fill="#333"/>
  <polygon points="210,100 220,110 200,110" fill="#333"/>
  <polygon points="210,150 220,160 200,160" fill="#333"/>
  <polygon points="210,200 220,210 200,210" fill="#333"/>
</svg>
